<mxfile host="app.diagrams.net" modified="2024-01-27T22:58:53.187Z" agent="Mozilla/5.0 (Windows NT 10.0; Win64; x64) AppleWebKit/537.36 (KHTML, like Gecko) Chrome/120.0.0.0 Safari/537.36" etag="BIy4HbfNCrjgfM4kMiiT" version="22.1.21" type="device" pages="2">
  <diagram name="Page-1" id="GxE4W9E4vLlQMjUbQ_7l">
    <mxGraphModel dx="792" dy="1104" grid="1" gridSize="10" guides="1" tooltips="1" connect="1" arrows="1" fold="1" page="1" pageScale="1" pageWidth="850" pageHeight="1100" math="0" shadow="0">
      <root>
        <mxCell id="0" />
        <mxCell id="1" parent="0" />
        <mxCell id="t2-MY21YAra_77Gz845t-4" value="" style="rounded=0;whiteSpace=wrap;html=1;rotation=90;" parent="1" vertex="1">
          <mxGeometry x="53.13" y="276.88" width="713.75" height="560" as="geometry" />
        </mxCell>
        <mxCell id="WXSWrlwZ_SbY7AHohf_R-1" value="" style="rounded=0;whiteSpace=wrap;html=1;" parent="1" vertex="1">
          <mxGeometry x="150" y="840" width="520" height="40" as="geometry" />
        </mxCell>
        <mxCell id="t2-MY21YAra_77Gz845t-6" value="Div-Container width: 700px padding: 20px" style="text;html=1;strokeColor=none;fillColor=none;align=center;verticalAlign=middle;whiteSpace=wrap;rounded=0;" parent="1" vertex="1">
          <mxGeometry x="282.5" y="200" width="254.99" height="30" as="geometry" />
        </mxCell>
        <mxCell id="t2-MY21YAra_77Gz845t-8" value="Div-Header width: 100% height: 170px" style="rounded=0;whiteSpace=wrap;html=1;" parent="1" vertex="1">
          <mxGeometry x="150.01" y="240" width="520" height="80" as="geometry" />
        </mxCell>
        <mxCell id="t2-MY21YAra_77Gz845t-9" value="" style="rounded=0;whiteSpace=wrap;html=1;" parent="1" vertex="1">
          <mxGeometry x="150" y="320" width="520" height="350" as="geometry" />
        </mxCell>
        <mxCell id="t2-MY21YAra_77Gz845t-10" value="Div-Content width: 100% min-height: 400px" style="text;html=1;strokeColor=none;fillColor=none;align=center;verticalAlign=middle;whiteSpace=wrap;rounded=0;" parent="1" vertex="1">
          <mxGeometry x="255.01" y="350" width="309.99" height="30" as="geometry" />
        </mxCell>
        <mxCell id="t2-MY21YAra_77Gz845t-11" value="" style="rounded=0;whiteSpace=wrap;html=1;" parent="1" vertex="1">
          <mxGeometry x="150" y="670" width="520" height="170" as="geometry" />
        </mxCell>
        <mxCell id="t2-MY21YAra_77Gz845t-12" value="Div-Comments width: 100% height 75px" style="text;html=1;strokeColor=none;fillColor=none;align=center;verticalAlign=middle;whiteSpace=wrap;rounded=0;" parent="1" vertex="1">
          <mxGeometry x="272.51" y="680" width="275" height="30" as="geometry" />
        </mxCell>
        <mxCell id="t2-MY21YAra_77Gz845t-14" value="Div-Footer width: 100% height: 75px" style="text;html=1;strokeColor=none;fillColor=none;align=center;verticalAlign=middle;whiteSpace=wrap;rounded=0;" parent="1" vertex="1">
          <mxGeometry x="267.5" y="840" width="285.01" height="30" as="geometry" />
        </mxCell>
        <mxCell id="DYRQF_3t5jSO_Bj6m--f-3" value="" style="rounded=1;whiteSpace=wrap;html=1;" vertex="1" parent="1">
          <mxGeometry x="560" y="740" width="97" height="50" as="geometry" />
        </mxCell>
        <mxCell id="DYRQF_3t5jSO_Bj6m--f-4" value="" style="rounded=1;whiteSpace=wrap;html=1;" vertex="1" parent="1">
          <mxGeometry x="610" y="710" width="47" height="20" as="geometry" />
        </mxCell>
        <mxCell id="DYRQF_3t5jSO_Bj6m--f-5" value="" style="rounded=1;whiteSpace=wrap;html=1;" vertex="1" parent="1">
          <mxGeometry x="610" y="800" width="47" height="20" as="geometry" />
        </mxCell>
        <mxCell id="DYRQF_3t5jSO_Bj6m--f-6" value="Name" style="text;html=1;strokeColor=none;fillColor=none;align=center;verticalAlign=middle;whiteSpace=wrap;rounded=0;" vertex="1" parent="1">
          <mxGeometry x="565" y="715" width="37" height="15" as="geometry" />
        </mxCell>
        <mxCell id="DYRQF_3t5jSO_Bj6m--f-7" value="Comments" style="text;html=1;strokeColor=none;fillColor=none;align=center;verticalAlign=middle;whiteSpace=wrap;rounded=0;" vertex="1" parent="1">
          <mxGeometry x="492.51" y="760" width="60" height="30" as="geometry" />
        </mxCell>
        <mxCell id="DYRQF_3t5jSO_Bj6m--f-8" value="Submit" style="text;html=1;strokeColor=none;fillColor=none;align=center;verticalAlign=middle;whiteSpace=wrap;rounded=0;strokeWidth=2;" vertex="1" parent="1">
          <mxGeometry x="626" y="794" width="15" height="32" as="geometry" />
        </mxCell>
        <mxCell id="DYRQF_3t5jSO_Bj6m--f-9" value="Comments" style="text;html=1;strokeColor=none;fillColor=none;align=center;verticalAlign=middle;whiteSpace=wrap;rounded=0;" vertex="1" parent="1">
          <mxGeometry x="597" y="670" width="60" height="30" as="geometry" />
        </mxCell>
        <mxCell id="DYRQF_3t5jSO_Bj6m--f-10" value="Return to Top" style="text;html=1;strokeColor=none;fillColor=none;align=center;verticalAlign=middle;whiteSpace=wrap;rounded=0;" vertex="1" parent="1">
          <mxGeometry x="577.49" y="685" width="92.51" height="30" as="geometry" />
        </mxCell>
        <mxCell id="DYRQF_3t5jSO_Bj6m--f-11" value="" style="whiteSpace=wrap;html=1;aspect=fixed;" vertex="1" parent="1">
          <mxGeometry x="577" y="485" width="80" height="80" as="geometry" />
        </mxCell>
        <mxCell id="DYRQF_3t5jSO_Bj6m--f-12" value="" style="whiteSpace=wrap;html=1;aspect=fixed;" vertex="1" parent="1">
          <mxGeometry x="160.01" y="410" width="80" height="80" as="geometry" />
        </mxCell>
        <mxCell id="DYRQF_3t5jSO_Bj6m--f-13" value="IMG1" style="text;html=1;strokeColor=none;fillColor=none;align=center;verticalAlign=middle;whiteSpace=wrap;rounded=0;" vertex="1" parent="1">
          <mxGeometry x="170.01" y="435" width="60" height="30" as="geometry" />
        </mxCell>
        <mxCell id="DYRQF_3t5jSO_Bj6m--f-14" value="IMG2" style="text;html=1;strokeColor=none;fillColor=none;align=center;verticalAlign=middle;whiteSpace=wrap;rounded=0;" vertex="1" parent="1">
          <mxGeometry x="587" y="510" width="60" height="30" as="geometry" />
        </mxCell>
        <mxCell id="DYRQF_3t5jSO_Bj6m--f-15" value="&lt;h1 style=&quot;font-size: 14px;&quot;&gt;&lt;span style=&quot;background-color: initial; font-weight: normal;&quot;&gt;Lorem ipsum dolor sit amet, consectetur adipisicing elit, sed do eiusmod tempor incididunt ut labore et dolore magna aliqua.&lt;/span&gt;&lt;span style=&quot;background-color: initial; font-weight: normal;&quot;&gt;Lorem ipsum dolor sit amet, consectetur adipisicing elit, sed do eiusmod tempor incididunt ut labore et dolore magna aliqua.&lt;/span&gt;&lt;br&gt;&lt;/h1&gt;" style="text;html=1;strokeColor=none;fillColor=none;spacing=5;spacingTop=-20;whiteSpace=wrap;overflow=hidden;rounded=0;" vertex="1" parent="1">
          <mxGeometry x="240" y="410" width="420" height="100" as="geometry" />
        </mxCell>
        <mxCell id="DYRQF_3t5jSO_Bj6m--f-17" value="&lt;h1 style=&quot;border-color: var(--border-color); text-align: left; font-size: 14px;&quot;&gt;Lorem ipsum dolor sit amet, consectetur adipisicing elit, sed do eiusmod tempor incididunt ut labore et dolore magna aliqua.&lt;span style=&quot;border-color: var(--border-color); background-color: initial; font-weight: normal;&quot;&gt;Lorem ipsum dolor sit amet, consectetur adipisicing elit, sed do eiusmod tempor incididunt ut labore et dolore magna aliqua.&lt;/span&gt;&lt;/h1&gt;" style="text;html=1;strokeColor=none;fillColor=none;align=center;verticalAlign=middle;whiteSpace=wrap;rounded=0;" vertex="1" parent="1">
          <mxGeometry x="160.01" y="580" width="510" height="60" as="geometry" />
        </mxCell>
        <mxCell id="DYRQF_3t5jSO_Bj6m--f-18" value="&lt;h1 style=&quot;border-color: var(--border-color); text-align: left; font-size: 14px;&quot;&gt;Lorem ipsum dolor sit amet, consectetur adipisicing elit, sed do eiusmod tempor incididunt ut labore et dolore magna aliqua.&lt;span style=&quot;border-color: var(--border-color); background-color: initial; font-weight: normal;&quot;&gt;Lorem ipsum dolor sit amet, consectetur adipisicing elit, sed do eiusmod tempor incididunt ut labore et dolore magna aliqua.&lt;/span&gt;&lt;/h1&gt;" style="text;html=1;strokeColor=none;fillColor=none;align=center;verticalAlign=middle;whiteSpace=wrap;rounded=0;" vertex="1" parent="1">
          <mxGeometry x="160.01" y="520" width="419.99" height="20" as="geometry" />
        </mxCell>
        <mxCell id="DYRQF_3t5jSO_Bj6m--f-19" value="&lt;h1&gt;Heading&lt;/h1&gt;" style="text;html=1;strokeColor=none;fillColor=none;spacing=5;spacingTop=-20;whiteSpace=wrap;overflow=hidden;rounded=0;" vertex="1" parent="1">
          <mxGeometry x="160.01" y="350" width="200" height="80" as="geometry" />
        </mxCell>
        <mxCell id="DYRQF_3t5jSO_Bj6m--f-20" value="&lt;font style=&quot;font-size: 16px;&quot;&gt;&lt;b&gt;Sub Heading&lt;/b&gt;&lt;/font&gt;" style="text;html=1;strokeColor=none;fillColor=none;align=center;verticalAlign=middle;whiteSpace=wrap;rounded=0;" vertex="1" parent="1">
          <mxGeometry x="130" y="375" width="164.99" height="30" as="geometry" />
        </mxCell>
        <mxCell id="DYRQF_3t5jSO_Bj6m--f-21" value="Comments" style="text;html=1;strokeColor=none;fillColor=none;align=center;verticalAlign=middle;whiteSpace=wrap;rounded=0;" vertex="1" parent="1">
          <mxGeometry x="160.01" y="330" width="60" height="30" as="geometry" />
        </mxCell>
      </root>
    </mxGraphModel>
  </diagram>
  <diagram id="g_PfN0IYZZHYhQWyZjmt" name="Page-2">
    <mxGraphModel dx="1255" dy="1104" grid="1" gridSize="10" guides="1" tooltips="1" connect="1" arrows="1" fold="1" page="1" pageScale="1" pageWidth="850" pageHeight="1100" math="0" shadow="0">
      <root>
        <mxCell id="0" />
        <mxCell id="1" parent="0" />
        <mxCell id="hC_WnEffR36M5N0sihcW-3" value="" style="rounded=0;whiteSpace=wrap;html=1;" vertex="1" parent="1">
          <mxGeometry x="25" y="100" width="795" height="800" as="geometry" />
        </mxCell>
        <mxCell id="hC_WnEffR36M5N0sihcW-4" value="" style="rounded=0;whiteSpace=wrap;html=1;" vertex="1" parent="1">
          <mxGeometry x="25" y="100" width="795" height="90" as="geometry" />
        </mxCell>
        <mxCell id="hC_WnEffR36M5N0sihcW-5" value="&lt;font style=&quot;font-size: 25px;&quot;&gt;Header&lt;/font&gt;" style="text;html=1;strokeColor=none;fillColor=none;align=center;verticalAlign=middle;whiteSpace=wrap;rounded=0;" vertex="1" parent="1">
          <mxGeometry x="395" y="115" width="60" height="30" as="geometry" />
        </mxCell>
        <mxCell id="hC_WnEffR36M5N0sihcW-6" value="" style="rounded=0;whiteSpace=wrap;html=1;" vertex="1" parent="1">
          <mxGeometry x="25" y="190" width="795" height="650" as="geometry" />
        </mxCell>
        <mxCell id="hC_WnEffR36M5N0sihcW-7" value="main div&lt;br&gt;id=&quot;div-main&quot;&lt;br&gt;width: 800px&lt;br&gt;height: 700px&lt;br&gt;padding: 20px&lt;br&gt;border: 1px solid black" style="text;html=1;strokeColor=none;fillColor=none;align=center;verticalAlign=middle;whiteSpace=wrap;rounded=0;" vertex="1" parent="1">
          <mxGeometry x="358.5" y="485" width="128" height="30" as="geometry" />
        </mxCell>
        <mxCell id="F4iVIEKZx4b3yuq5zw0z-1" value="Footer" style="text;html=1;strokeColor=none;fillColor=none;align=center;verticalAlign=middle;whiteSpace=wrap;rounded=0;" vertex="1" parent="1">
          <mxGeometry x="396" y="850" width="60" height="30" as="geometry" />
        </mxCell>
        <mxCell id="c3rXuuUUcifxIU_5dgTG-4" value="&lt;h1&gt;&lt;span style=&quot;background-color: initial; font-size: 18px;&quot;&gt;Heading - List #1&lt;/span&gt;&lt;/h1&gt;&lt;h1&gt;&lt;span style=&quot;font-size: 12px; font-weight: 400;&quot;&gt;Paragraph 1&lt;/span&gt;&lt;/h1&gt;&lt;h1&gt;&lt;span style=&quot;background-color: initial; font-size: 12px; font-weight: normal;&quot;&gt;Lorem ipsum dolor sit amet, consectetur adipisicing elit, sed do eiusmod tempor incididunt ut labore et dolore magna aliqua.&lt;/span&gt;&lt;br&gt;&lt;/h1&gt;" style="text;html=1;strokeColor=none;fillColor=none;spacing=5;spacingTop=-20;whiteSpace=wrap;overflow=hidden;rounded=0;" vertex="1" parent="1">
          <mxGeometry x="60" y="220" width="730" height="120" as="geometry" />
        </mxCell>
        <mxCell id="c3rXuuUUcifxIU_5dgTG-5" value="&lt;h1&gt;&lt;span style=&quot;background-color: initial; font-size: 18px;&quot;&gt;Heading - List #2&lt;/span&gt;&lt;/h1&gt;&lt;h1&gt;&lt;span style=&quot;background-color: initial; font-size: 12px; font-weight: normal;&quot;&gt;Paragraph 2&lt;/span&gt;&lt;/h1&gt;&lt;h1&gt;&lt;span style=&quot;background-color: initial; font-size: 12px; font-weight: normal;&quot;&gt;Lorem ipsum dolor sit amet, consectetur adipisicing elit, sed do eiusmod tempor incididunt ut labore et dolore magna aliqua.&lt;/span&gt;&lt;br&gt;&lt;/h1&gt;" style="text;html=1;strokeColor=none;fillColor=none;spacing=5;spacingTop=-20;whiteSpace=wrap;overflow=hidden;rounded=0;" vertex="1" parent="1">
          <mxGeometry x="60" y="430" width="280" height="120" as="geometry" />
        </mxCell>
        <mxCell id="c3rXuuUUcifxIU_5dgTG-6" value="&lt;h1 style=&quot;&quot;&gt;&lt;span style=&quot;background-color: initial; font-size: 18px;&quot;&gt;Heading - List #3&lt;/span&gt;&lt;/h1&gt;&lt;h1 style=&quot;&quot;&gt;&lt;span style=&quot;font-size: 12px; background-color: initial; font-weight: normal;&quot;&gt;Paragraph 3&lt;/span&gt;&lt;/h1&gt;&lt;h1 style=&quot;&quot;&gt;&lt;span style=&quot;font-size: 12px; background-color: initial; font-weight: normal;&quot;&gt;Lorem ipsum dolor sit amet, consectetur adipisicing elit, sed do eiusmod tempor incididunt ut labore et dolore magna aliqua.&lt;/span&gt;&lt;br&gt;&lt;/h1&gt;" style="text;html=1;strokeColor=none;fillColor=none;spacing=5;spacingTop=-20;whiteSpace=wrap;overflow=hidden;rounded=0;" vertex="1" parent="1">
          <mxGeometry x="60" y="660" width="700" height="120" as="geometry" />
        </mxCell>
        <mxCell id="DfwAwSZCsbaTzaO3iZx1-2" value="&lt;font style=&quot;font-size: 20px;&quot;&gt;Author&lt;/font&gt;" style="text;html=1;strokeColor=none;fillColor=none;align=center;verticalAlign=middle;whiteSpace=wrap;rounded=0;" vertex="1" parent="1">
          <mxGeometry x="393" y="145" width="60" height="30" as="geometry" />
        </mxCell>
      </root>
    </mxGraphModel>
  </diagram>
</mxfile>
